<?xml version="1.0" encoding="UTF-8" standalone="no"?>
<!DOCTYPE svg PUBLIC "-//W3C//DTD SVG 1.1//EN" "http://www.w3.org/Graphics/SVG/1.1/DTD/svg11.dtd">
<!--Generated by Intaglio, www.PurgatoryDesign.com-->
<svg version="1.1" viewBox="0,0,559,783" width="559" height="783" xmlns="http://www.w3.org/2000/svg" xmlns:xlink="http://www.w3.org/1999/xlink" xmlns:intaglio="http://purgatorydesign.com/namespaces/intaglio" intaglio:grid="36,36,1,1,0.5,#9999bf,1,0,0,0" intaglio:guides="0.8,#f0f,1,1"><defs><radialGradient id="618000a6c140" gradientUnits="userSpaceOnUse"><stop offset="0" stop-color="#000"/><stop offset="1" stop-color="#0080ff"/></radialGradient><linearGradient id="6180008617c0" gradientUnits="userSpaceOnUse"><stop offset="0" stop-color="#f00"/><stop offset="1" stop-color="#f66"/></linearGradient><linearGradient id="600001265500" gradientUnits="userSpaceOnUse"><stop offset="0" stop-color="#0080ff"/><stop offset="1" stop-color="#f00"/></linearGradient></defs><radialGradient id="600000341810" xlink:href="#618000a6c140" cx="105.5" cy="266.75" r="349.914"/><path fill="url(#600000341810)" stroke="#000100" d="M105.5,266.75 L179.5,266.75 L179.5,608.75 L105.5,608.75 L105.5,266.75 Z"/><path fill="#0080ff" stroke="#00f" stroke-linecap="round" stroke-linejoin="round" d="M179.5,266.25 C179.5,270.254,162.935,273.5,142.5,273.5 C122.065,273.5,105.5,270.254,105.5,266.25 C105.5,262.246,122.065,259,142.5,259 C162.935,259,179.5,262.246,179.5,266.25"/><path fill="#fffffe" stroke="#000100" d="M179.5,609.375 C179.5,611.101,162.935,612.5,142.5,612.5 C122.065,612.5,105.5,611.101,105.5,609.375 C105.5,607.649,122.065,606.25,142.5,606.25 C162.935,606.25,179.5,607.649,179.5,609.375 Z"/><linearGradient id="61800015fa00" xlink:href="#6180008617c0" x1="359" y1="266.75" x2="433" y2="608.75"/><path fill="url(#61800015fa00)" stroke="#000100" d="M359,266.75 L433,266.75 L433,608.75 L359,608.75 L359,266.75 Z"/><path fill="#f66" stroke="#000100" d="M433,266.25 C433,270.254,416.435,273.5,396,273.5 C375.565,273.5,359,270.254,359,266.25 C359,262.246,375.565,259,396,259 C416.435,259,433,262.246,433,266.25 Z"/><path fill="#fffffe" stroke="#000100" d="M433,608.875 C433,610.601,416.435,612,396,612 C375.565,612,359,610.601,359,608.875 C359,607.149,375.565,605.75,396,605.75 C416.435,605.75,433,607.149,433,608.875 Z"/><path fill="#f00" d="M383,608.75 L409,608.75 L409,707.25 L383,707.25 L383,608.75 Z"/><path fill="#0080ff" d="M129.5,608.75 L155.5,608.75 L155.5,707.25 L129.5,707.25 L129.5,608.75"/><path fill="#fffffe" stroke="#191919" stroke-width="5.5" d="M316.688,220.131 C316.688,241.467,297.576,258.762,274,258.762 C250.424,258.762,231.312,241.467,231.312,220.131 C231.312,198.796,250.424,181.5,274,181.5 C297.576,181.5,316.688,198.796,316.688,220.131"/><path fill="none" stroke="#00f" stroke-width="11" stroke-linecap="round" stroke-linejoin="round" d="M142.5,266.25 C174.5,213.5,231.5,217.5,231.5,217.5"/><path fill="none" stroke="#f00" stroke-width="11" stroke-linecap="round" d="M405.688,266.25 C373.688,213.5,316.688,217.5,316.688,217.5"/><text fill="#000100" font-family="Helvetica" font-size="12" transform="matrix(6.72048,6.72048,-2.64132,2.64132,263.03,227.682)" xml:space="preserve"><tspan>∫</tspan></text><g><path fill="none" intaglio:arrow-start="1" stroke="#000" stroke-width="5.5" d="M233.187,658 L333.5,658" intaglio:d="M213,658 L333.5,658"/><path intaglio:omit="yes" d="M234.25,666.5 L213,658 L234.25,649.5"/></g><linearGradient id="600000347f30" xlink:href="#600001265500" x1="129.5" y1="684" x2="409" y2="707.25"/><path fill="url(#600000347f30)" d="M129.5,684 L409,684 L409,707.25 L129.5,707.25 L129.5,684 Z"/><path fill="#fff" stroke="#fff" d="M238.75,687.75 L307.75,687.75"/><path fill="#fff" stroke="#fff" d="M238.75,690 L307.75,690"/><path fill="#fff" stroke="#fff" d="M238.75,692.25 L307.75,692.25"/><path fill="#fff" stroke="#fff" d="M238.75,694.5 L307.75,694.5"/><path fill="#fff" stroke="#fff" d="M238.75,696.75 L307.75,696.75"/><path fill="#fff" stroke="#fff" d="M238.75,699 L307.75,699"/><path fill="#fff" stroke="#fff" d="M238.75,701.25 L307.75,701.25"/><path fill="#fff" stroke="#fff" d="M238.75,703.5 L307.75,703.5"/></svg>
