<?xml version="1.0" encoding="UTF-8" standalone="no"?>
<!DOCTYPE svg PUBLIC "-//W3C//DTD SVG 1.1//EN" "http://www.w3.org/Graphics/SVG/1.1/DTD/svg11.dtd">
<!--Generated by Intaglio, www.PurgatoryDesign.com-->
<svg version="1.1" viewBox="109,161,301,280" width="301" height="280" xmlns="http://www.w3.org/2000/svg" xmlns:xlink="http://www.w3.org/1999/xlink"><path fill="none" stroke="#000" stroke-width="3" d="M111.25,232.4 C111.25,212.849,137.8,197,170.55,197 L348.45,197 C381.2,197,407.75,212.849,407.75,232.4 L407.75,403.6 C407.75,423.151,381.2,439,348.45,439 L170.55,439 C137.8,439,111.25,423.151,111.25,403.6 Z"/><path fill="none" stroke="#000" stroke-width="3" d="M157,240.182 C157,222.408,178.222,208,204.4,208 L346.6,208 C372.778,208,394,222.408,394,240.182 L394,395.818 C394,413.592,372.778,428,346.6,428 L204.4,428 C178.222,428,157,413.592,157,395.818 Z"/><path fill="#fff" stroke="#f00" stroke-width="5.5" d="M291,197 C291,215.225,276.225,230,258,230 C239.775,230,225,215.225,225,197 C225,178.775,239.775,164,258,164 C276.225,164,291,178.775,291,197 Z"/><path fill="none" stroke="#000" stroke-width="3" d="M253.25,430.5 L262.75,430.5"/><path fill="none" stroke="#000" stroke-width="3" d="M253.25,437 L262.75,437"/><path fill="none" stroke="#000" stroke-width="3" d="M261.25,430.5 L270.75,430.5"/><path fill="none" stroke="#000" stroke-width="3" d="M269.25,430.5 L278.75,430.5"/><path fill="none" stroke="#000" stroke-width="3" d="M261.25,437 L270.75,437"/><path fill="none" stroke="#000" stroke-width="3" d="M269.25,437 L278.75,437"/><path fill="none" stroke="#000" stroke-width="3" d="M243.75,430.5 L253.25,430.5"/><path fill="none" stroke="#000" stroke-width="3" d="M234.25,430.5 L243.75,430.5"/><path fill="none" stroke="#000" stroke-width="3" d="M243.75,437 L253.25,437"/><path fill="none" stroke="#000" stroke-width="3" d="M234.25,437 L243.75,437"/></svg>
